<svg width="12" height="15" viewBox="0 0 12 15" fill="none" xmlns="http://www.w3.org/2000/svg">
<circle cx="6" cy="9" r="5.75" stroke="white" stroke-width="0.5"/>
<path d="M6.22798 12.1364C5.61435 12.1364 5.08594 11.9915 4.64276 11.7017C4.19957 11.4119 3.85866 11.0128 3.62003 10.5043C3.38139 9.99574 3.26207 9.41477 3.26207 8.76136C3.26207 8.09659 3.38423 7.50994 3.62855 7.00142C3.87571 6.49006 4.21946 6.09091 4.6598 5.80398C5.10298 5.5142 5.62003 5.36932 6.21094 5.36932C6.67116 5.36932 7.08594 5.45455 7.45526 5.625C7.82457 5.79545 8.12713 6.03409 8.36293 6.34091C8.59872 6.64773 8.74503 7.00568 8.80185 7.41477H7.79616C7.71946 7.11648 7.54901 6.85227 7.2848 6.62216C7.02344 6.3892 6.67116 6.27273 6.22798 6.27273C5.83594 6.27273 5.49219 6.375 5.19673 6.57955C4.90412 6.78125 4.67543 7.06676 4.51065 7.43608C4.34872 7.80256 4.26776 8.23295 4.26776 8.72727C4.26776 9.23295 4.3473 9.6733 4.50639 10.0483C4.66832 10.4233 4.8956 10.7145 5.18821 10.9219C5.48366 11.1293 5.83026 11.233 6.22798 11.233C6.48935 11.233 6.72656 11.1875 6.93963 11.0966C7.1527 11.0057 7.3331 10.875 7.48082 10.7045C7.62855 10.5341 7.73366 10.3295 7.79616 10.0909H8.80185C8.74503 10.4773 8.6044 10.8253 8.37997 11.1349C8.15838 11.4418 7.86435 11.6861 7.49787 11.8679C7.13423 12.0469 6.71094 12.1364 6.22798 12.1364Z" fill="white"/>
</svg>
