<svg width="30" height="30" viewBox="0 0 30 30" fill="none" xmlns="http://www.w3.org/2000/svg">
<path d="M0 26C0 28.2091 1.79086 30 4 30H26C28.2091 30 30 28.2091 30 26V4C30 1.79086 28.2091 0 26 0H4C1.79086 0 0 1.79086 0 4V26Z" fill="#762B3E"/>
<path fill-rule="evenodd" clip-rule="evenodd" d="M18.3305 13.8181C17.349 13.8181 16.5529 14.6944 16.5529 15.7755C16.5529 16.8567 17.3486 17.7329 18.3305 17.7329C19.3121 17.7329 20.1077 16.8567 20.1077 15.7755C20.1077 14.6947 19.3121 13.8181 18.3305 13.8181ZM11.6695 13.8181C10.6879 13.8181 9.89191 14.6944 9.89191 15.7755C9.89191 16.8567 10.6876 17.7329 11.6695 17.7329C12.651 17.7329 13.4471 16.8567 13.4471 15.7755C13.4471 14.6947 12.6514 13.8181 11.6695 13.8181ZM17.2479 8.59673C17.2479 8.59673 17.2479 8.59669 17.2479 8.59665C17.3995 8.25378 17.5676 7.91776 17.7512 7.58819C17.788 7.52242 17.823 7.50988 17.904 7.52433C19.2052 7.79119 20.4966 8.19035 21.7868 8.67542C21.8598 8.70165 21.9507 8.75982 21.9925 8.829C24.0122 11.885 25.3169 15.4064 24.9223 19.8192C24.9121 19.9849 24.8797 20.013 24.7627 20.0974C23.2843 21.1451 21.7157 21.9784 19.9997 22.4582C19.8249 22.511 19.7682 22.4688 19.6968 22.365C19.5141 22.0972 19.3425 21.8258 19.1768 21.5524C18.9434 21.1671 19.1232 20.6703 19.5319 20.4809C19.735 20.3868 19.932 20.2877 20.1212 20.182C20.2697 20.0992 20.2848 19.895 20.1551 19.785C20.0722 19.7147 19.9541 19.7061 19.8593 19.7592C18.7505 20.3812 16.9868 20.7836 15.0008 20.7836C13.0143 20.7836 11.251 20.3815 10.1422 19.7593C10.0474 19.7061 9.92933 19.7147 9.84644 19.785C9.71678 19.895 9.73184 20.0991 9.88032 20.182C10.0697 20.2876 10.2667 20.3868 10.4698 20.4809C10.8784 20.6703 11.0582 21.167 10.8248 21.5522C10.659 21.8257 10.4872 22.0972 10.3044 22.365C10.2329 22.4684 10.1766 22.5106 10.0018 22.4582C8.28539 21.9784 6.71727 21.1448 5.23886 20.0974C5.12177 20.0127 5.08946 19.9849 5.0792 19.8192C4.6846 15.4064 5.98928 11.885 8.00902 8.829C8.05046 8.75982 8.14131 8.70165 8.2143 8.67542C9.50454 8.19073 10.7959 7.79119 12.0972 7.52433C12.1781 7.50988 12.2127 7.52242 12.25 7.58819C12.5724 8.16695 13.2108 8.51003 13.8713 8.45813C14.2328 8.42973 14.6111 8.41464 15.0008 8.41464C15.8163 8.41464 16.5821 8.48074 17.2479 8.59662C17.248 8.59663 17.248 8.59673 17.2479 8.59673Z" fill="#FFFEFE"/>
</svg>
