<svg width="30" height="30" viewBox="0 0 30 30" fill="none" xmlns="http://www.w3.org/2000/svg">
<path fill-rule="evenodd" clip-rule="evenodd" d="M6.03093 0H23.9691C27.3041 0 30 2.70057 30 6.02989V23.965C30 27.2994 27.299 30 23.9691 30H6.03093C2.69588 30 0 27.2994 0 23.965V6.02989C0 2.69541 2.70103 0 6.03093 0Z" fill="#762B3E"/>
<path fill-rule="evenodd" clip-rule="evenodd" d="M4.00177 10.926V21.8107C4.00177 22.6405 4.67703 23.3156 5.45538 23.3156H8.98115V14.7656L4.00692 10.9312L4.00177 10.926Z" fill="white"/>
<path fill-rule="evenodd" clip-rule="evenodd" d="M20.9503 14.7604V23.3105H24.476C25.2544 23.3105 25.9296 22.6354 25.9296 21.8056V10.9209L20.9554 14.7553L20.9503 14.7604Z" fill="white"/>
<path fill-rule="evenodd" clip-rule="evenodd" d="M25.9296 10.926V9.78703C25.9296 8.90574 25.9812 8.33367 25.4606 7.81829C24.6307 6.88547 23.1822 6.73085 22.141 7.50907C21.7802 7.76676 21.3626 8.08114 20.9503 8.39036V14.7656L25.9245 10.9312L25.9296 10.926Z" fill="white"/>
<path fill-rule="evenodd" clip-rule="evenodd" d="M4.00181 9.78188V10.9209L8.97604 14.7553V8.38006C8.56367 8.07084 8.14614 7.75646 7.73377 7.49877C6.74924 6.72055 5.29563 6.87517 4.46573 7.808C3.94511 8.32852 4.00181 8.89544 4.00181 9.77673V9.78188Z" fill="white"/>
<path fill-rule="evenodd" clip-rule="evenodd" d="M8.97601 14.7604L14.9348 19.2699L20.9502 14.7604V8.38522C18.9296 9.89012 16.9605 11.4414 14.9348 12.9463C12.9657 11.4414 10.9451 9.89012 8.97601 8.38522V14.7604Z" fill="white"/>
</svg>
