<svg width="39" height="15" viewBox="0 0 39 15" fill="none" xmlns="http://www.w3.org/2000/svg">
<path fill-rule="evenodd" clip-rule="evenodd" d="M21.8781 9.1138C24.1015 8.69764 24.4107 11.7534 22.966 12.4966C21.9375 12.9068 21.1706 12.1755 21.0338 11.3551C20.8495 10.2136 20.9922 9.28026 21.8781 9.1138ZM24.7377 13.3348C25.9267 12.3539 25.9802 9.98179 25.0587 8.57874C24.5593 7.81776 23.3762 7.30648 21.991 7.41944C19.9518 7.59185 19.7319 8.75709 19.3395 9.06624L19.3335 7.40755L17.3954 7.39566L17.3776 9.79749H15.2909L15.3146 7.40161H13.3765L13.3527 13.9947L15.2968 14.0066V11.3432C15.9983 11.3432 16.6998 11.3432 17.4014 11.3432C17.4014 12.1993 17.4014 13.1446 17.4014 14.0007L19.3454 14.0066C19.3633 13.4954 19.3692 12.8414 19.393 12.3301C20.5404 14.1553 23.18 14.619 24.7495 13.3289L24.7377 13.3348Z" fill="#273C5B"/>
<path fill-rule="evenodd" clip-rule="evenodd" d="M2.78826 8.56686C3.51951 8.60847 3.40061 8.91167 3.7157 9.39917C4.17348 9.38134 4.63125 9.3635 5.08902 9.34567C4.92851 10.0472 5.04741 10.2493 4.33994 9.98774C3.65625 9.78561 2.93095 9.68454 2.28293 9.38728C1.78948 9.16137 2.0154 8.52524 2.79421 8.56686H2.78826ZM5.46357 12.8711C6.96768 14.6666 10.4931 14.4169 11.0163 11.908C10.6418 11.6643 9.96997 11.4443 9.36951 11.3789C9.03659 12.0685 8.91768 12.6155 7.94268 12.5323C6.42668 12.4074 6.56936 9.4289 7.66921 9.01274C8.75122 8.60253 8.92363 9.34567 9.36951 9.75588C9.90457 9.64292 10.4396 9.52997 10.9806 9.42295C10.3386 6.87844 6.59909 6.90222 5.40412 8.71548C4.98201 8.09719 4.97012 8.04963 4.31021 7.62158C3.73354 7.24704 2.88338 7.35405 2.16402 7.45512C0.969055 7.62158 -0.237805 8.47173 0.326982 9.89856C0.790701 11.0757 2.11646 10.9746 3.31738 11.5156C4.89284 12.2172 2.38994 13.8996 1.81921 11.6999C1.2128 11.7297 0.606402 11.7534 0 11.7832C0.0772866 12.4669 0.184299 12.8176 0.558842 13.2219C1.69436 14.4525 4.55396 14.185 5.46357 12.8652V12.8711Z" fill="#273C5B"/>
<path fill-rule="evenodd" clip-rule="evenodd" d="M30.5282 8.9652C32.6803 8.25178 32.7695 12.0567 31.3724 12.4788C30.3142 12.7998 29.7553 12.1102 29.6364 11.2303C29.4997 10.2256 29.6245 9.26245 30.5282 8.9652ZM27.7697 11.7772C28.495 14.619 32.4425 14.7201 33.9585 12.4847C33.9645 12.9603 33.9585 13.5192 33.9645 13.9948H39L38.9584 12.3361L35.9799 12.2766V7.42541L34.0358 7.40758C34.0239 7.87724 34.018 8.57877 34.0061 9.04843C33.1916 8.16261 33.2808 8.228 31.8242 7.5681C31.6637 7.52648 31.527 7.45514 31.42 7.36002C31.2535 7.45514 31.0752 7.55026 30.879 7.63349C30.2963 7.88913 29.4581 7.96642 28.709 7.97236C27.8291 8.60255 27.514 10.7368 27.7816 11.7713L27.7697 11.7772Z" fill="#273C5B"/>
<path fill-rule="evenodd" clip-rule="evenodd" d="M2.38399 1.35542C4.82744 1.35542 4.20914 2.60389 2.78826 2.60389C2.65152 2.60389 2.50884 2.60389 2.3721 2.60389C2.37805 2.18773 2.38399 1.77157 2.38994 1.35542H2.38399ZM4.61936 3.567C4.69664 3.53133 4.76799 3.48377 4.85122 3.45999C6.391 3.04978 6.47424 0.885752 5.31494 0.309075C4.41128 -0.142754 1.62896 0.0355992 0.428047 0.0355992C0.428047 2.15206 0.428047 4.26258 0.428047 6.37905H2.3721C2.37805 5.54078 2.37805 4.62523 2.38399 3.78103C3.4125 3.86426 4.0189 5.56456 4.39939 6.38499L6.66448 6.37905C6.27805 5.35648 5.65381 4.04856 4.6253 3.56106L4.61936 3.567Z" fill="#273C5B"/>
<path fill-rule="evenodd" clip-rule="evenodd" d="M25.6472 5.38028C25.5997 4.93439 25.6532 4.40528 25.8672 3.75726C24.5058 2.60985 22.3596 2.29476 22.1515 1.80726C21.7294 0.814424 23.2692 1.01656 23.5011 1.44461C23.8934 2.16991 23.1622 2.02723 25.5462 1.89644C25.4392 -0.493503 21.5332 -0.398381 20.6117 0.933327C20.2134 1.56351 20.3264 2.40177 20.7306 2.91305C21.5273 3.90589 23.9291 3.70375 23.9053 4.67875C23.7091 5.17814 23.4297 5.38622 22.8233 5.27327C22.1991 5.16031 22.1396 4.74415 21.8543 4.25071L20.1421 4.27449C20.4988 7.10436 23.9767 7.05086 25.6413 5.38622L25.6472 5.38028Z" fill="#273C5B"/>
<path fill-rule="evenodd" clip-rule="evenodd" d="M27.7518 3.88804C28.0907 4.56579 28.6912 5.12463 28.709 5.48134C28.7328 5.951 28.2869 5.48134 28.1323 5.65969L27.6567 6.23637C27.9777 6.40283 28.3107 6.67631 28.8517 6.42661C30.3617 5.73698 29.0954 4.19719 28.4296 3.37082L27.7518 3.8821V3.88804Z" fill="#273C5B"/>
<path fill-rule="evenodd" clip-rule="evenodd" d="M31.5329 3.51944C31.1643 3.03194 30.0407 3.73347 29.7613 3.52539C29.3986 3.25786 29.9932 3.00222 30.1715 3.10328C30.4688 3.28164 30.1715 3.3827 31.0038 2.82981C30.4569 1.99155 29.0717 2.85953 29.0241 3.53728C29.0122 3.84642 29.2322 4.12585 29.4878 4.22097C29.9872 4.41121 30.8076 3.82264 31.0098 4.17935C31.0454 4.39932 30.986 4.53606 30.7482 4.62524C30.4985 4.72036 30.3915 4.57767 30.1775 4.46472L29.5651 4.83926C30.2131 5.67158 32.5198 4.82737 31.5329 3.51944Z" fill="#273C5B"/>
<path fill-rule="evenodd" clip-rule="evenodd" d="M32.395 1.42677C34.6363 3.00817 33.6851 5.84399 31.4378 7.33027C30.9682 7.71671 27.5497 8.76899 26.2061 6.7536C23.8697 3.23408 29.1192 -0.885885 32.389 1.42677H32.395Z" stroke="#273C5B" stroke-miterlimit="22.9256"/>
</svg>
