<svg width="11" height="11" viewBox="0 0 11 11" fill="none" xmlns="http://www.w3.org/2000/svg">
<path d="M4.59393 0.940301C4.95312 0.171122 6.0469 0.171124 6.40609 0.940302L7.19104 2.62124C7.34014 2.94052 7.64628 3.15776 7.99688 3.19309L9.83105 3.37787C10.7053 3.46595 11.0491 4.5579 10.383 5.13094L9.07913 6.25252C8.79964 6.49294 8.67511 6.86764 8.75508 7.22753L9.12953 8.91273C9.31621 9.75286 8.42496 10.4207 7.67105 10.0057L5.9823 9.07591C5.68202 8.91059 5.318 8.91059 5.01772 9.07591L3.32897 10.0057C2.57506 10.4207 1.68381 9.75286 1.87048 8.91273L2.24494 7.22753C2.32491 6.86764 2.20037 6.49294 1.92089 6.25252L0.617065 5.13093C-0.0490798 4.5579 0.294688 3.46595 1.16897 3.37787L3.00314 3.19309C3.35374 3.15776 3.65988 2.94052 3.80898 2.62124L4.59393 0.940301Z" fill="#FCFCFC"/>
</svg>
